<svg width="16" height="15" viewBox="0 0 16 15" fill="none" xmlns="http://www.w3.org/2000/svg">
<path d="M0.5625 3.49963H15.1875C15.4688 3.49963 15.75 3.25354 15.75 2.93713V1.53088C15.75 1.24963 15.4688 0.968384 15.1875 0.968384H0.5625C0.246094 0.968384 0 1.24963 0 1.53088V2.93713C0 3.25354 0.246094 3.49963 0.5625 3.49963ZM0.5625 9.12463H15.1875C15.4688 9.12463 15.75 8.87854 15.75 8.56213V7.15588C15.75 6.87463 15.4688 6.59338 15.1875 6.59338H0.5625C0.246094 6.59338 0 6.87463 0 7.15588V8.56213C0 8.87854 0.246094 9.12463 0.5625 9.12463ZM0.5625 14.7496H15.1875C15.4688 14.7496 15.75 14.5035 15.75 14.1871V12.7809C15.75 12.4996 15.4688 12.2184 15.1875 12.2184H0.5625C0.246094 12.2184 0 12.4996 0 12.7809V14.1871C0 14.5035 0.246094 14.7496 0.5625 14.7496Z" fill="#415123"/>
</svg>
